<?xml version='1.0' encoding='utf-8'?>
<svg xmlns="http://www.w3.org/2000/svg" width="390" height="8110" viewBox="0 0 390 8110"><title>CompuCare — Wireframe móvil</title><rect width="390" height="8110" fill="#FFFFFF" rx="2" stroke="#9B9DA0" stroke-width="1" /><g id="01_Navegacion"><rect x="0" y="0" width="390" height="76" rx="2" fill="#FFFFFF" stroke="#9B9DA0" stroke-width="1" /><rect x="24" y="21" width="32" height="32" rx="2" fill="#EEEEEE" stroke="#9B9DA0" stroke-width="1" /><path d="M31 29h18v12H31z M37 46h6 M40 41v5" fill="none" stroke="#62666A" stroke-width="1.5" /><text x="65" y="44" font-family="Arial, Helvetica, sans-serif" font-size="22" font-weight="400" fill="#303236">CompuCare</text><rect x="286.0" y="36.4" width="15" height="3.3600000000000003" fill="#BFC1C3" rx="1" /><path d="M337 29h25 M337 37h25 M337 45h25" stroke="#62666A" stroke-width="2" /></g><g id="02_Inicio"><rect x="0" y="76" width="390" height="866" rx="2" fill="#EEEEEE" stroke="#9B9DA0" stroke-width="1" /><text x="24" y="121" font-family="Arial, Helvetica, sans-serif" font-size="11" font-weight="400" fill="#303236">SOPORTE TÉCNICO PARA EMPRESAS</text><text x="24" y="181" font-family="Arial, Helvetica, sans-serif" font-size="44" font-weight="700" fill="#303236">Tus equipos</text><text x="24" y="231" font-family="Arial, Helvetica, sans-serif" font-size="44" font-weight="700" fill="#303236">operativos.</text><text x="24" y="281" font-family="Arial, Helvetica, sans-serif" font-size="44" font-weight="700" fill="#303236">Tu empresa</text><text x="24" y="331" font-family="Arial, Helvetica, sans-serif" font-size="44" font-weight="700" fill="#303236">en marcha.</text><rect x="24.0" y="368.65" width="216.92" height="4.760000000000001" fill="#BFC1C3" rx="1" /><rect x="24.0" y="395.65" width="239.36" height="4.760000000000001" fill="#BFC1C3" rx="1" /><rect x="24.0" y="422.65" width="201.96" height="4.760000000000001" fill="#BFC1C3" rx="1" /><rect x="24" y="472" width="342" height="48" rx="2" fill="#EEEEEE" stroke="#9B9DA0" stroke-width="1" /><text x="42" y="502" font-family="Arial, Helvetica, sans-serif" font-size="15" font-weight="400" fill="#303236">Conocer los planes  →</text><rect x="24" y="532" width="342" height="48" rx="2" fill="#FFFFFF" stroke="#9B9DA0" stroke-width="1" /><text x="42" y="562" font-family="Arial, Helvetica, sans-serif" font-size="15" font-weight="400" fill="#303236">Cómo funciona</text><text x="24" y="617" font-family="Arial, Helvetica, sans-serif" font-size="13" font-weight="400" fill="#303236">✓ Cobertura clara    ✓ Adicionales autorizados</text><rect x="24" y="648" width="342" height="250" rx="2" fill="#EEEEEE" stroke="#9B9DA0" stroke-width="1" /><rect x="40" y="666" width="310" height="211" rx="2" fill="#FFFFFF" stroke="#9B9DA0" stroke-width="1" /><rect x="40" y="666" width="310" height="36" rx="2" fill="#EEEEEE" stroke="#9B9DA0" stroke-width="1" /><rect x="40" y="687" width="310" height="15" rx="2" fill="#EEEEEE" /><text x="55" y="689" font-family="Arial, Helvetica, sans-serif" font-size="12" font-weight="400" fill="#303236">CompuCare / Mi empresa</text><text x="55" y="729" font-family="Arial, Helvetica, sans-serif" font-size="18" font-weight="400" fill="#303236">Resumen de soporte</text><rect x="55" y="747" width="130" height="64" rx="2" fill="#EEEEEE" stroke="#9B9DA0" stroke-width="1" /><text x="65" y="775" font-family="Arial, Helvetica, sans-serif" font-size="24" font-weight="700" fill="#303236">06 h</text><rect x="65.0" y="792.5" width="79.2" height="3" fill="#BFC1C3" rx="1" /><rect x="205" y="747" width="130" height="64" rx="2" fill="#EEEEEE" stroke="#9B9DA0" stroke-width="1" /><text x="215" y="775" font-family="Arial, Helvetica, sans-serif" font-size="24" font-weight="700" fill="#303236">01</text><rect x="215.0" y="792.5" width="57.2" height="3" fill="#BFC1C3" rx="1" /><rect x="55" y="824" width="280" height="35" rx="2" fill="#EEEEEE" stroke="#9B9DA0" stroke-width="1" /><text x="66" y="846" font-family="Arial, Helvetica, sans-serif" font-size="12" font-weight="400" fill="#303236">#024 · Diagnóstico en curso</text><rect x="76.0" y="916.4" width="179.52" height="3.3600000000000003" fill="#BFC1C3" rx="1" /></g><g id="03_Servicios"><text x="24" y="998" font-family="Arial, Helvetica, sans-serif" font-size="11" font-weight="400" fill="#303236">SERVICIOS</text><text x="24" y="1043" font-family="Arial, Helvetica, sans-serif" font-size="29" font-weight="700" fill="#303236">Todo el soporte</text><text x="24" y="1079" font-family="Arial, Helvetica, sans-serif" font-size="29" font-weight="700" fill="#303236">para tus equipos.</text><rect x="24.0" y="1125.2" width="267.52" height="4.48" fill="#BFC1C3" rx="1" /><rect x="24.0" y="1150.2" width="204.16" height="4.48" fill="#BFC1C3" rx="1" /><rect x="24" y="1193" width="342" height="195" rx="2" fill="#FFFFFF" stroke="#9B9DA0" stroke-width="1" /><rect x="44" y="1212" width="36" height="32" rx="2" fill="#EEEEEE" stroke="#9B9DA0" stroke-width="1" /><text x="53" y="1234" font-family="Arial, Helvetica, sans-serif" font-size="13" font-weight="400" fill="#303236">01</text><text x="44" y="1275" font-family="Arial, Helvetica, sans-serif" font-size="20" font-weight="400" fill="#303236">Reparación de equipos</text><rect x="44.0" y="1299.75" width="217.8" height="4.2" fill="#BFC1C3" rx="1" /><rect x="44.0" y="1322.75" width="184.8" height="4.2" fill="#BFC1C3" rx="1" /><rect x="44.0" y="1345.75" width="217.8" height="4.2" fill="#BFC1C3" rx="1" /><rect x="24" y="1408" width="342" height="195" rx="2" fill="#FFFFFF" stroke="#9B9DA0" stroke-width="1" /><rect x="44" y="1427" width="36" height="32" rx="2" fill="#EEEEEE" stroke="#9B9DA0" stroke-width="1" /><text x="53" y="1449" font-family="Arial, Helvetica, sans-serif" font-size="13" font-weight="400" fill="#303236">02</text><text x="44" y="1490" font-family="Arial, Helvetica, sans-serif" font-size="20" font-weight="400" fill="#303236">Mantenimiento preventivo</text><rect x="44.0" y="1514.75" width="198.0" height="4.2" fill="#BFC1C3" rx="1" /><rect x="44.0" y="1537.75" width="224.4" height="4.2" fill="#BFC1C3" rx="1" /><rect x="44.0" y="1560.75" width="125.4" height="4.2" fill="#BFC1C3" rx="1" /><rect x="24" y="1623" width="342" height="195" rx="2" fill="#FFFFFF" stroke="#9B9DA0" stroke-width="1" /><rect x="44" y="1642" width="36" height="32" rx="2" fill="#EEEEEE" stroke="#9B9DA0" stroke-width="1" /><text x="53" y="1664" font-family="Arial, Helvetica, sans-serif" font-size="13" font-weight="400" fill="#303236">03</text><text x="44" y="1705" font-family="Arial, Helvetica, sans-serif" font-size="20" font-weight="400" fill="#303236">Solicitudes centralizadas</text><rect x="44.0" y="1729.75" width="224.4" height="4.2" fill="#BFC1C3" rx="1" /><rect x="44.0" y="1752.75" width="204.6" height="4.2" fill="#BFC1C3" rx="1" /><rect x="44.0" y="1775.75" width="158.4" height="4.2" fill="#BFC1C3" rx="1" /><rect x="24" y="1838" width="342" height="195" rx="2" fill="#FFFFFF" stroke="#9B9DA0" stroke-width="1" /><rect x="44" y="1857" width="36" height="32" rx="2" fill="#EEEEEE" stroke="#9B9DA0" stroke-width="1" /><text x="53" y="1879" font-family="Arial, Helvetica, sans-serif" font-size="13" font-weight="400" fill="#303236">04</text><text x="44" y="1920" font-family="Arial, Helvetica, sans-serif" font-size="20" font-weight="400" fill="#303236">Remoto y presencial</text><rect x="44.0" y="1944.75" width="184.8" height="4.2" fill="#BFC1C3" rx="1" /><rect x="44.0" y="1967.75" width="224.4" height="4.2" fill="#BFC1C3" rx="1" /><rect x="44.0" y="1990.75" width="99.0" height="4.2" fill="#BFC1C3" rx="1" /><rect x="24" y="2053" width="342" height="195" rx="2" fill="#FFFFFF" stroke="#9B9DA0" stroke-width="1" /><rect x="44" y="2072" width="36" height="32" rx="2" fill="#EEEEEE" stroke="#9B9DA0" stroke-width="1" /><text x="53" y="2094" font-family="Arial, Helvetica, sans-serif" font-size="13" font-weight="400" fill="#303236">05</text><text x="44" y="2135" font-family="Arial, Helvetica, sans-serif" font-size="20" font-weight="400" fill="#303236">Seguimiento de atenciones</text><rect x="44.0" y="2159.75" width="198.0" height="4.2" fill="#BFC1C3" rx="1" /><rect x="44.0" y="2182.75" width="217.8" height="4.2" fill="#BFC1C3" rx="1" /><rect x="44.0" y="2205.75" width="92.4" height="4.2" fill="#BFC1C3" rx="1" /><rect x="24" y="2268" width="342" height="195" rx="2" fill="#FFFFFF" stroke="#9B9DA0" stroke-width="1" /><rect x="44" y="2287" width="36" height="32" rx="2" fill="#EEEEEE" stroke="#9B9DA0" stroke-width="1" /><text x="53" y="2309" font-family="Arial, Helvetica, sans-serif" font-size="13" font-weight="400" fill="#303236">06</text><text x="44" y="2350" font-family="Arial, Helvetica, sans-serif" font-size="20" font-weight="400" fill="#303236">Historial y control del plan</text><rect x="44.0" y="2374.75" width="217.8" height="4.2" fill="#BFC1C3" rx="1" /><rect x="44.0" y="2397.75" width="231.0" height="4.2" fill="#BFC1C3" rx="1" /><rect x="44.0" y="2420.75" width="118.8" height="4.2" fill="#BFC1C3" rx="1" /></g><g id="04_Empresas"><rect x="0" y="2527" width="390" height="487" rx="2" fill="#EEEEEE" stroke="#9B9DA0" stroke-width="1" /><text x="24" y="2580" font-family="Arial, Helvetica, sans-serif" font-size="11" font-weight="400" fill="#303236">PARA TU EMPRESA</text><text x="24" y="2624" font-family="Arial, Helvetica, sans-serif" font-size="28" font-weight="700" fill="#303236">Tu equipo de soporte,</text><text x="24" y="2660" font-family="Arial, Helvetica, sans-serif" font-size="28" font-weight="700" fill="#303236">sin complicaciones.</text><rect x="24.0" y="2714.2" width="267.52" height="4.48" fill="#BFC1C3" rx="1" /><rect x="24.0" y="2739.2" width="246.4" height="4.48" fill="#BFC1C3" rx="1" /><text x="24" y="2816" font-family="Arial, Helvetica, sans-serif" font-size="20" font-weight="400" fill="#303236">01 / Oficinas administrativas</text><rect x="24.0" y="2842.75" width="231.0" height="4.2" fill="#BFC1C3" rx="1" /><rect x="24.0" y="2865.75" width="158.4" height="4.2" fill="#BFC1C3" rx="1" /><text x="24" y="2934" font-family="Arial, Helvetica, sans-serif" font-size="18" font-weight="400" fill="#303236">02 / Pequeñas y medianas empresas</text><rect x="24.0" y="2961.75" width="264.0" height="4.2" fill="#BFC1C3" rx="1" /></g><g id="05_Como_funciona"><text x="24" y="3073" font-family="Arial, Helvetica, sans-serif" font-size="11" font-weight="400" fill="#303236">ASÍ FUNCIONA</text><text x="24" y="3119" font-family="Arial, Helvetica, sans-serif" font-size="29" font-weight="700" fill="#303236">Del problema</text><text x="24" y="3155" font-family="Arial, Helvetica, sans-serif" font-size="29" font-weight="700" fill="#303236">a la solución.</text><rect x="24" y="3214" width="35" height="35" rx="2" fill="#EEEEEE" stroke="#9B9DA0" stroke-width="1" /><text x="36" y="3238" font-family="Arial, Helvetica, sans-serif" font-size="16" font-weight="400" fill="#303236">1</text><text x="76" y="3232" font-family="Arial, Helvetica, sans-serif" font-size="19" font-weight="400" fill="#303236">Elige tu plan</text><rect x="76.0" y="3255.85" width="194.48" height="3.6400000000000006" fill="#BFC1C3" rx="1" /><rect x="24" y="3305" width="35" height="35" rx="2" fill="#EEEEEE" stroke="#9B9DA0" stroke-width="1" /><text x="36" y="3329" font-family="Arial, Helvetica, sans-serif" font-size="16" font-weight="400" fill="#303236">2</text><text x="76" y="3323" font-family="Arial, Helvetica, sans-serif" font-size="19" font-weight="400" fill="#303236">Registra tu solicitud</text><rect x="76.0" y="3346.85" width="165.88" height="3.6400000000000006" fill="#BFC1C3" rx="1" /><rect x="24" y="3396" width="35" height="35" rx="2" fill="#EEEEEE" stroke="#9B9DA0" stroke-width="1" /><text x="36" y="3420" font-family="Arial, Helvetica, sans-serif" font-size="16" font-weight="400" fill="#303236">3</text><text x="76" y="3414" font-family="Arial, Helvetica, sans-serif" font-size="19" font-weight="400" fill="#303236">Recibe atención</text><rect x="76.0" y="3437.85" width="223.08" height="3.6400000000000006" fill="#BFC1C3" rx="1" /><rect x="24" y="3487" width="35" height="35" rx="2" fill="#EEEEEE" stroke="#9B9DA0" stroke-width="1" /><text x="36" y="3511" font-family="Arial, Helvetica, sans-serif" font-size="16" font-weight="400" fill="#303236">4</text><text x="76" y="3505" font-family="Arial, Helvetica, sans-serif" font-size="19" font-weight="400" fill="#303236">Revisa el resultado</text><rect x="76.0" y="3528.85" width="194.48" height="3.6400000000000006" fill="#BFC1C3" rx="1" /></g><g id="06_Planes"><rect x="0" y="3610" width="390" height="1630" rx="2" fill="#EEEEEE" stroke="#9B9DA0" stroke-width="1" /><text x="24" y="3668" font-family="Arial, Helvetica, sans-serif" font-size="11" font-weight="400" fill="#303236">PLANES MENSUALES</text><text x="24" y="3714" font-family="Arial, Helvetica, sans-serif" font-size="29" font-weight="700" fill="#303236">Una cobertura definida.</text><text x="24" y="3750" font-family="Arial, Helvetica, sans-serif" font-size="29" font-weight="700" fill="#303236">El control en tus manos.</text><rect x="24.0" y="3796.2" width="232.32" height="4.48" fill="#BFC1C3" rx="1" /><rect x="24.0" y="3821.2" width="267.52" height="4.48" fill="#BFC1C3" rx="1" /><rect x="24" y="3873" width="342" height="370" rx="2" fill="#FFFFFF" stroke="#9B9DA0" stroke-width="1" /><text x="46" y="3916" font-family="Arial, Helvetica, sans-serif" font-size="26" font-weight="700" fill="#303236">Básico</text><rect x="46.0" y="3936.75" width="85.8" height="4.2" fill="#BFC1C3" rx="1" /><text x="46" y="4003" font-family="Arial, Helvetica, sans-serif" font-size="38" font-weight="700" fill="#303236">4 horas</text><rect x="46.0" y="4019.75" width="178.2" height="4.2" fill="#BFC1C3" rx="1" /><rect x="46" y="4048" width="298" height="1" rx="2" fill="#EEEEEE" /><rect x="46.0" y="4072.3" width="227.92" height="3.9200000000000004" fill="#BFC1C3" rx="1" /><rect x="46.0" y="4097.3" width="160.16" height="3.9200000000000004" fill="#BFC1C3" rx="1" /><rect x="46.0" y="4122.3" width="123.2" height="3.9200000000000004" fill="#BFC1C3" rx="1" /><rect x="46.0" y="4147.3" width="178.64000000000001" height="3.9200000000000004" fill="#BFC1C3" rx="1" /><rect x="46" y="4172" width="298" height="48" rx="2" fill="#EEEEEE" stroke="#9B9DA0" stroke-width="1" /><text x="64" y="4202" font-family="Arial, Helvetica, sans-serif" font-size="15" font-weight="400" fill="#303236">Consultar plan  →</text><rect x="24" y="4265" width="342" height="370" rx="2" fill="#EEEEEE" stroke="#9B9DA0" stroke-width="1" /><text x="46" y="4308" font-family="Arial, Helvetica, sans-serif" font-size="26" font-weight="700" fill="#303236">Empresarial</text><rect x="46.0" y="4328.75" width="112.2" height="4.2" fill="#BFC1C3" rx="1" /><text x="46" y="4395" font-family="Arial, Helvetica, sans-serif" font-size="38" font-weight="700" fill="#303236">8 horas</text><rect x="46.0" y="4411.75" width="178.2" height="4.2" fill="#BFC1C3" rx="1" /><rect x="46" y="4440" width="298" height="1" rx="2" fill="#EEEEEE" /><rect x="46.0" y="4464.3" width="234.08" height="3.9200000000000004" fill="#BFC1C3" rx="1" /><rect x="46.0" y="4489.3" width="160.16" height="3.9200000000000004" fill="#BFC1C3" rx="1" /><rect x="46.0" y="4514.3" width="123.2" height="3.9200000000000004" fill="#BFC1C3" rx="1" /><rect x="46.0" y="4539.3" width="178.64000000000001" height="3.9200000000000004" fill="#BFC1C3" rx="1" /><rect x="46" y="4564" width="298" height="48" rx="2" fill="#EEEEEE" stroke="#9B9DA0" stroke-width="1" /><text x="64" y="4594" font-family="Arial, Helvetica, sans-serif" font-size="15" font-weight="400" fill="#303236">Consultar plan  →</text><rect x="24" y="4657" width="342" height="370" rx="2" fill="#FFFFFF" stroke="#9B9DA0" stroke-width="1" /><text x="46" y="4700" font-family="Arial, Helvetica, sans-serif" font-size="26" font-weight="700" fill="#303236">Integral</text><rect x="46.0" y="4720.75" width="132.0" height="4.2" fill="#BFC1C3" rx="1" /><text x="46" y="4787" font-family="Arial, Helvetica, sans-serif" font-size="38" font-weight="700" fill="#303236">16 horas</text><rect x="46.0" y="4803.75" width="178.2" height="4.2" fill="#BFC1C3" rx="1" /><rect x="46" y="4832" width="298" height="1" rx="2" fill="#EEEEEE" /><rect x="46.0" y="4856.3" width="234.08" height="3.9200000000000004" fill="#BFC1C3" rx="1" /><rect x="46.0" y="4881.3" width="160.16" height="3.9200000000000004" fill="#BFC1C3" rx="1" /><rect x="46.0" y="4906.3" width="123.2" height="3.9200000000000004" fill="#BFC1C3" rx="1" /><rect x="46.0" y="4931.3" width="178.64000000000001" height="3.9200000000000004" fill="#BFC1C3" rx="1" /><rect x="46" y="4956" width="298" height="48" rx="2" fill="#EEEEEE" stroke="#9B9DA0" stroke-width="1" /><text x="64" y="4986" font-family="Arial, Helvetica, sans-serif" font-size="15" font-weight="400" fill="#303236">Consultar plan  →</text><rect x="24.0" y="5069.85" width="228.8" height="3.6400000000000006" fill="#BFC1C3" rx="1" /><rect x="24.0" y="5094.85" width="240.24" height="3.6400000000000006" fill="#BFC1C3" rx="1" /><rect x="24.0" y="5119.85" width="205.92" height="3.6400000000000006" fill="#BFC1C3" rx="1" /><rect x="24.0" y="5144.85" width="217.36" height="3.6400000000000006" fill="#BFC1C3" rx="1" /><rect x="24.0" y="5169.85" width="234.52" height="3.6400000000000006" fill="#BFC1C3" rx="1" /></g><g id="07_Producto"><text x="24" y="5300" font-family="Arial, Helvetica, sans-serif" font-size="11" font-weight="400" fill="#303236">CONOCE COMPUCARE</text><text x="24" y="5345" font-family="Arial, Helvetica, sans-serif" font-size="29" font-weight="700" fill="#303236">Todo lo que necesitas,</text><text x="24" y="5381" font-family="Arial, Helvetica, sans-serif" font-size="29" font-weight="700" fill="#303236">en un solo lugar.</text><rect x="24" y="5418" width="342" height="223" rx="2" fill="#EEEEEE" stroke="#9B9DA0" stroke-width="1" /><rect x="40" y="5434" width="310" height="147" rx="2" fill="#EEEEEE" stroke="#9B9DA0" stroke-width="1" /><circle cx="195" cy="5507" r="25" fill="#D0D1D3" /><path d="M189 5496l17 11-17 11z" fill="#D0D1D3" /><rect x="61.0" y="5607.3" width="203.28" height="3.9200000000000004" fill="#BFC1C3" rx="1" /><text x="24" y="5695" font-family="Arial, Helvetica, sans-serif" font-size="20" font-weight="400" fill="#303236">Deja de perseguir actualizaciones.</text><rect x="24.0" y="5729.2" width="246.4" height="4.48" fill="#BFC1C3" rx="1" /><rect x="24.0" y="5754.2" width="246.4" height="4.48" fill="#BFC1C3" rx="1" /><rect x="24.0" y="5779.2" width="183.04" height="4.48" fill="#BFC1C3" rx="1" /></g><g id="08_Contacto"><rect x="0" y="5852" width="390" height="845" rx="2" fill="#EEEEEE" stroke="#9B9DA0" stroke-width="1" /><text x="24" y="5910" font-family="Arial, Helvetica, sans-serif" font-size="11" font-weight="400" fill="#303236">CONTACTO</text><text x="24" y="5956" font-family="Arial, Helvetica, sans-serif" font-size="29" font-weight="700" fill="#303236">Hablemos del soporte</text><text x="24" y="5992" font-family="Arial, Helvetica, sans-serif" font-size="29" font-weight="700" fill="#303236">que tu empresa necesita.</text><rect x="24.0" y="6039.2" width="225.28" height="4.48" fill="#BFC1C3" rx="1" /><rect x="24.0" y="6064.2" width="225.28" height="4.48" fill="#BFC1C3" rx="1" /><rect x="24.0" y="6089.2" width="253.44" height="4.48" fill="#BFC1C3" rx="1" /><rect x="24" y="6155" width="342" height="397" rx="2" fill="#FFFFFF" stroke="#9B9DA0" stroke-width="1" /><text x="42" y="6189" font-family="Arial, Helvetica, sans-serif" font-size="13" font-weight="400" fill="#303236">Nombre y apellido</text><rect x="42" y="6201" width="306" height="43" rx="2" fill="#FFFFFF" stroke="#9B9DA0" stroke-width="1" /><rect x="54.0" y="6220.3" width="55.44" height="3.9200000000000004" fill="#BFC1C3" rx="1" /><text x="42" y="6268" font-family="Arial, Helvetica, sans-serif" font-size="13" font-weight="400" fill="#303236">Empresa</text><rect x="42" y="6280" width="306" height="43" rx="2" fill="#FFFFFF" stroke="#9B9DA0" stroke-width="1" /><rect x="54.0" y="6299.3" width="123.2" height="3.9200000000000004" fill="#BFC1C3" rx="1" /><text x="42" y="6347" font-family="Arial, Helvetica, sans-serif" font-size="13" font-weight="400" fill="#303236">Correo de trabajo</text><rect x="42" y="6359" width="306" height="43" rx="2" fill="#FFFFFF" stroke="#9B9DA0" stroke-width="1" /><text x="54" y="6386" font-family="Arial, Helvetica, sans-serif" font-size="14" font-weight="400" fill="#303236">nombre@empresa.com</text><text x="42" y="6426" font-family="Arial, Helvetica, sans-serif" font-size="13" font-weight="400" fill="#303236">¿Cómo podemos ayudarte?</text><rect x="42" y="6438" width="306" height="43" rx="2" fill="#FFFFFF" stroke="#9B9DA0" stroke-width="1" /><rect x="54.0" y="6457.3" width="141.68" height="3.9200000000000004" fill="#BFC1C3" rx="1" /><rect x="42" y="6494" width="306" height="48" rx="2" fill="#EEEEEE" stroke="#9B9DA0" stroke-width="1" /><text x="60" y="6524" font-family="Arial, Helvetica, sans-serif" font-size="15" font-weight="400" fill="#303236">Enviar consulta  →</text><rect x="24.0" y="6591.3" width="221.76" height="3.9200000000000004" fill="#BFC1C3" rx="1" /><rect x="24.0" y="6615.3" width="246.4" height="3.9200000000000004" fill="#BFC1C3" rx="1" /></g><g id="09_Nosotros"><text x="24" y="6758" font-family="Arial, Helvetica, sans-serif" font-size="11" font-weight="400" fill="#303236">SOBRE NOSOTROS</text><text x="24" y="6804" font-family="Arial, Helvetica, sans-serif" font-size="29" font-weight="700" fill="#303236">Tecnología con</text><text x="24" y="6840" font-family="Arial, Helvetica, sans-serif" font-size="29" font-weight="700" fill="#303236">respaldo humano.</text><rect x="24" y="6882" width="342" height="179" rx="2" fill="#EEEEEE" stroke="#9B9DA0" stroke-width="1" /><text x="48" y="6947" font-family="Arial, Helvetica, sans-serif" font-size="44" font-weight="700" fill="#303236">UniLink</text><rect x="48.0" y="6983.1" width="198.0" height="5.040000000000001" fill="#BFC1C3" rx="1" /><rect x="48.0" y="7010.1" width="190.08" height="5.040000000000001" fill="#BFC1C3" rx="1" /><rect x="24.0" y="7106.75" width="231.0" height="4.2" fill="#BFC1C3" rx="1" /><rect x="24.0" y="7132.75" width="257.4" height="4.2" fill="#BFC1C3" rx="1" /><rect x="24.0" y="7158.75" width="244.2" height="4.2" fill="#BFC1C3" rx="1" /><rect x="24.0" y="7184.75" width="283.8" height="4.2" fill="#BFC1C3" rx="1" /><rect x="24.0" y="7247.75" width="264.0" height="4.2" fill="#BFC1C3" rx="1" /><rect x="24.0" y="7273.75" width="290.4" height="4.2" fill="#BFC1C3" rx="1" /></g><g id="10_Equipo"><rect x="0" y="7341" width="390" height="502" rx="2" fill="#EEEEEE" stroke="#9B9DA0" stroke-width="1" /><text x="24" y="7399" font-family="Arial, Helvetica, sans-serif" font-size="11" font-weight="400" fill="#303236">NUESTRO EQUIPO</text><text x="24" y="7444" font-family="Arial, Helvetica, sans-serif" font-size="29" font-weight="700" fill="#303236">Las personas detrás</text><text x="24" y="7480" font-family="Arial, Helvetica, sans-serif" font-size="29" font-weight="700" fill="#303236">de CompuCare.</text><rect x="24.0" y="7529.75" width="244.2" height="4.2" fill="#BFC1C3" rx="1" /><rect x="24.0" y="7555.75" width="250.8" height="4.2" fill="#BFC1C3" rx="1" /><rect x="24.0" y="7581.75" width="257.4" height="4.2" fill="#BFC1C3" rx="1" /><rect x="24" y="7637" width="342" height="166" rx="2" fill="#EEEEEE" stroke="#9B9DA0" stroke-width="1" /><circle cx="195" cy="7696" r="25" fill="#D0D1D3" /><path d="M189 7685l17 11-17 11z" fill="#D0D1D3" /><text x="95" y="7758" font-family="Arial, Helvetica, sans-serif" font-size="17" font-weight="400" fill="#303236">Conoce al equipo UniLink</text><rect x="132.0" y="7775.4" width="105.6" height="3.3600000000000003" fill="#BFC1C3" rx="1" /></g><g id="11_Pie_de_pagina"><rect x="0" y="7843" width="390" height="267" rx="2" fill="#EEEEEE" stroke="#9B9DA0" stroke-width="1" /><text x="24" y="7902" font-family="Arial, Helvetica, sans-serif" font-size="29" font-weight="700" fill="#303236">CompuCare</text><rect x="24.0" y="7933.2" width="161.92" height="4.48" fill="#BFC1C3" rx="1" /><rect x="24.0" y="7958.2" width="147.84" height="4.48" fill="#BFC1C3" rx="1" /><rect x="24.0" y="8013.3" width="203.28" height="3.9200000000000004" fill="#BFC1C3" rx="1" /><rect x="24.0" y="8053.4" width="227.04" height="3.3600000000000003" fill="#BFC1C3" rx="1" /><rect x="24.0" y="8081.4" width="126.72" height="3.3600000000000003" fill="#BFC1C3" rx="1" /></g></svg>